<svg xmlns="http://www.w3.org/2000/svg" xmlns:xlink="http://www.w3.org/1999/xlink" version="1.1" id="Layer_1" width="512px" height="512px" viewBox="0 0 512 512" enable-background="new 0 0 512 512" xml:space="preserve"><path d="M451.787,128.06c-0.018-3.229-1.28-6.398-3.654-8.772L346.006,17.161c-2.376-2.376-5.547-3.638-8.779-3.654  c-0.021,0-0.039-0.007-0.06-0.007H131.457c-39.288,0-71.251,31.963-71.251,71.251v342.498c0,39.288,31.963,71.251,71.251,71.251  h249.087c39.288,0,71.251-31.963,71.251-71.251V128.127C451.795,128.104,451.788,128.083,451.787,128.06z M349.667,56.178  l59.45,59.449h-59.45V56.178z M380.543,473.5H131.457c-25.503,0-46.251-20.748-46.251-46.251V84.751  c0-25.503,20.748-46.251,46.251-46.251h193.211v89.627c0,6.903,5.597,12.5,12.5,12.5h89.627v286.622  C426.795,452.752,406.047,473.5,380.543,473.5z M394.978,217.462c0,6.903-5.597,12.5-12.5,12.5h-154.32  c-6.903,0-12.5-5.597-12.5-12.5s5.597-12.5,12.5-12.5h154.32C389.381,204.962,394.978,210.559,394.978,217.462z M394.978,307.063  c0,6.903-5.597,12.5-12.5,12.5h-154.32c-6.903,0-12.5-5.597-12.5-12.5s5.597-12.5,12.5-12.5h154.32  C389.381,294.563,394.978,300.16,394.978,307.063z M394.978,396.666c0,6.903-5.597,12.5-12.5,12.5h-154.32  c-6.903,0-12.5-5.597-12.5-12.5s5.597-12.5,12.5-12.5h154.32C389.381,384.166,394.978,389.763,394.978,396.666z M155.061,179.423  c-20.975,0-38.039,17.064-38.039,38.039s17.064,38.038,38.039,38.038s38.039-17.063,38.039-38.038S176.035,179.423,155.061,179.423z   M155.061,230.5c-7.189,0-13.039-5.849-13.039-13.038s5.849-13.039,13.039-13.039s13.039,5.85,13.039,13.039  S162.25,230.5,155.061,230.5z M155.061,269.025c-20.975,0-38.039,17.063-38.039,38.038s17.064,38.039,38.039,38.039  s38.039-17.064,38.039-38.039S176.035,269.025,155.061,269.025z M155.061,320.103c-7.189,0-13.039-5.85-13.039-13.039  s5.849-13.038,13.039-13.038s13.039,5.849,13.039,13.038S162.25,320.103,155.061,320.103z M155.061,358.627  c-20.975,0-38.039,17.064-38.039,38.039s17.064,38.038,38.039,38.038s38.039-17.063,38.039-38.038S176.035,358.627,155.061,358.627z   M155.061,409.704c-7.189,0-13.039-5.849-13.039-13.038s5.849-13.039,13.039-13.039s13.039,5.85,13.039,13.039  S162.25,409.704,155.061,409.704z"/></svg>