<?xml version="1.0" standalone="no"?>
<!DOCTYPE svg PUBLIC "-//W3C//DTD SVG 20010904//EN"
 "http://www.w3.org/TR/2001/REC-SVG-20010904/DTD/svg10.dtd">
<svg version="1.0" xmlns="http://www.w3.org/2000/svg"
 width="1920.000000pt" height="1080.000000pt" viewBox="0 0 1920.000000 1080.000000"
 preserveAspectRatio="xMidYMid meet">

<g transform="translate(0.000000,1080.000000) scale(0.100000,-0.100000)"
fill="#000000" stroke="none">
<path d="M6630 6704 c0 -15 27 -50 217 -284 70 -86 102 -126 268 -330 132
-162 152 -186 157 -180 2 3 32 40 66 82 l62 78 -201 242 c-111 134 -231 280
-268 325 l-66 82 -117 0 c-102 1 -118 -1 -118 -15z"/>
<path d="M7869 6278 c-200 -244 -561 -683 -801 -976 -241 -294 -438 -542 -438
-553 0 -18 8 -19 118 -19 l117 0 70 87 c39 48 82 100 96 117 15 17 135 164
268 326 133 162 246 295 250 295 5 0 160 -186 346 -412 l338 -413 119 0 c112
0 118 1 118 20 0 12 -160 215 -392 497 -216 262 -392 479 -390 482 1 3 89 111
195 240 105 129 281 343 390 475 108 132 197 249 197 258 0 16 -12 18 -119 18
l-119 0 -363 -442z"/>
<path d="M9013 6078 c4 -716 5 -733 73 -895 77 -188 214 -331 390 -409 62 -27
203 -64 247 -64 l27 0 0 104 0 104 -66 12 c-207 39 -376 197 -441 410 -15 48
-17 134 -20 718 l-4 662 -105 0 -105 0 4 -642z"/>
<path d="M10480 6077 c0 -608 -1 -648 -20 -721 -55 -216 -216 -374 -431 -423
l-69 -15 0 -104 0 -104 28 0 c53 0 187 40 267 79 200 99 339 274 403 509 l26
97 4 663 3 662 -105 0 -106 0 0 -643z"/>
<path d="M11320 5945 l0 -775 100 0 100 0 0 775 0 775 -100 0 -100 0 0 -775z"/>
<path d="M12730 6615 l0 -105 818 2 817 3 3 103 3 102 -821 0 -820 0 0 -105z"/>
<path d="M13440 5510 l0 -780 105 0 105 0 0 780 0 780 -105 0 -105 0 0 -780z"/>
<path d="M11320 4835 l0 -105 700 0 700 0 0 105 0 105 -700 0 -700 0 0 -105z"/>
</g>
</svg>
