<?xml version="1.0" standalone="no"?>
<!DOCTYPE svg PUBLIC "-//W3C//DTD SVG 20010904//EN"
 "http://www.w3.org/TR/2001/REC-SVG-20010904/DTD/svg10.dtd">
<svg version="1.0" xmlns="http://www.w3.org/2000/svg"
 width="32.000000pt" height="32.000000pt" viewBox="0 0 32.000000 32.000000"
 preserveAspectRatio="xMidYMid meet">

<g transform="translate(0.000000,32.000000) scale(0.100000,-0.100000)"
fill="#000000" stroke="none">
<path d="M118 303 c6 -2 18 -2 25 0 6 3 1 5 -13 5 -14 0 -19 -2 -12 -5z"/>
<path d="M178 303 c7 -3 16 -2 19 1 4 3 -2 6 -13 5 -11 0 -14 -3 -6 -6z"/>
<path d="M78 293 c7 -3 16 -2 19 1 4 3 -2 6 -13 5 -11 0 -14 -3 -6 -6z"/>
<path d="M228 293 c7 -3 16 -2 19 1 4 3 -2 6 -13 5 -11 0 -14 -3 -6 -6z"/>
<path d="M268 283 c7 -3 16 -2 19 1 4 3 -2 6 -13 5 -11 0 -14 -3 -6 -6z"/>
<path d="M31 163 c1 -43 4 -64 6 -48 3 17 10 36 16 44 9 11 9 15 0 18 -15 5
-18 43 -3 43 6 0 10 5 10 10 0 6 -7 10 -15 10 -12 0 -15 -15 -14 -77z"/>
<path d="M78 203 c-7 -56 2 -113 18 -113 8 0 14 5 14 10 0 6 -4 10 -9 10 -13
0 -11 101 2 118 7 8 5 12 -5 12 -10 0 -17 -13 -20 -37z"/>
<path d="M120 200 c0 -22 5 -40 10 -40 6 0 9 -12 9 -27 -1 -18 -3 -21 -6 -10
-2 9 -8 15 -13 12 -13 -8 1 -45 16 -45 10 0 14 13 14 45 0 25 -4 45 -10 45 -5
0 -10 10 -10 23 0 18 2 19 10 7 8 -12 10 -11 10 8 0 13 -6 22 -15 22 -11 0
-15 -11 -15 -40z"/>
<path d="M168 228 c5 -7 10 -39 11 -72 0 -32 3 -61 6 -64 3 -3 5 22 5 56 0 33
3 67 6 76 4 12 0 16 -16 16 -17 0 -20 -3 -12 -12z"/>
<path d="M210 171 c0 -69 11 -94 33 -72 8 8 6 11 -6 11 -20 0 -23 30 -4 49 10
11 10 14 0 18 -19 7 -16 34 5 49 16 12 15 13 -5 14 -22 0 -23 -4 -23 -69z"/>
<path d="M259 207 c-3 -21 -2 -57 2 -80 l6 -42 3 35 3 35 7 -35 c5 -25 7 -13
7 45 0 55 -2 69 -7 45 l-7 -35 -4 35 -4 35 -6 -38z"/>
<path d="M78 23 c7 -3 16 -2 19 1 4 3 -2 6 -13 5 -11 0 -14 -3 -6 -6z"/>
<path d="M218 23 c6 -2 18 -2 25 0 6 3 1 5 -13 5 -14 0 -19 -2 -12 -5z"/>
<path d="M128 13 c7 -3 16 -2 19 1 4 3 -2 6 -13 5 -11 0 -14 -3 -6 -6z"/>
<path d="M168 13 c7 -3 16 -2 19 1 4 3 -2 6 -13 5 -11 0 -14 -3 -6 -6z"/>
</g>
</svg>
